<?xml version="1.0" encoding="UTF-8"?>
<svg id="a" data-name="Layer 1" xmlns="http://www.w3.org/2000/svg" width="6.602in" height="1.106in" viewBox="0 0 475.36 79.629">
  <g>
    <path d="m56.024,1.509l-6.899,53.23h.202L68.634,1.509h18.159l-32.923,76.934h-20.58l7.604-51.721h-.202l-20.113,51.721H0L8.307,1.509h18.158l-8.613,53.23h.202L39.076,1.509h16.948Z" fill="#010101" stroke-width="0"/>
    <path d="m124.119,1.509l-3.061,76.934h-19.974l1.692-13.469h-14.93l-5.526,13.469h-19.672L100.513,1.509h23.606Zm-16.119,15.732l-13.893,32.649h10.491l3.604-32.649h-.202Z" fill="#010101" stroke-width="0"/>
    <path d="m155.191,1.509l-7.967,57.97h.202L170.525,1.509h19.974l-36.15,76.934h-24.211L135.52,1.509h19.672Z" fill="#010101" stroke-width="0"/>
    <path d="m192.92,1.509h20.277l-.127,26.831h.202l14.25-26.831h20.58l-30.862,46.656-8.113,30.278h-18.764l8.113-30.278-5.557-46.656Z" fill="#010101" stroke-width="0"/>
  </g>
  <g>
    <path d="m247.054,21.604c2.23-5.063,4.784-9.194,7.658-12.392,2.874-3.195,6.156-5.531,9.847-7.004,3.689-1.472,7.922-2.209,12.697-2.209s8.612.737,11.514,2.209c2.9,1.473,4.932,3.809,6.093,7.004,1.161,3.198,1.499,7.328,1.018,12.392-.484,5.065-1.687,11.19-3.612,18.372-1.925,7.184-4.003,13.307-6.233,18.371-2.233,5.065-4.785,9.196-7.658,12.392-2.875,3.198-6.143,5.478-9.803,6.842-3.662,1.364-7.88,2.047-12.655,2.047s-8.627-.683-11.557-2.047c-2.931-1.364-4.976-3.645-6.137-6.842-1.161-3.196-1.501-7.327-1.018-12.392.482-5.063,1.687-11.187,3.612-18.371,1.924-7.182,4.002-13.307,6.233-18.372Zm9.887,31.248c-.781,3.412-1.222,6.125-1.322,8.135-.103,2.012.161,3.413.79,4.202.628.792,1.65,1.186,3.061,1.186s2.643-.394,3.698-1.186c1.051-.789,2.065-2.19,3.042-4.202.976-2.01,1.988-4.724,3.037-8.135,1.049-3.412,2.266-7.704,3.652-12.876,1.386-5.172,2.468-9.464,3.248-12.876.779-3.412,1.22-6.124,1.322-8.137.101-2.009-.163-3.41-.79-4.202-.631-.789-1.65-1.184-3.063-1.184s-2.645.396-3.697,1.184c-1.054.792-2.068,2.193-3.042,4.202-.978,2.013-1.99,4.725-3.037,8.137-1.05,3.412-2.266,7.704-3.652,12.876-1.386,5.172-2.47,9.464-3.248,12.876Z" fill="#010101" stroke-width="0"/>
    <path d="m344.745,1.509l-3.061,76.934h-19.974l1.692-13.469h-14.93l-5.526,13.469h-19.672L321.139,1.509h23.606Zm-16.119,15.732l-13.893,32.649h10.491l3.604-32.649h-.202Z" fill="#010101" stroke-width="0"/>
    <path d="m383.484,1.509l-7.911,29.524h.202l21.832-29.524h19.974l-27.167,33.619,8.771,43.316h-21.386l-3.807-26.829-5.667,6.464-5.457,20.366h-18.764L364.719,1.509h18.764Z" fill="#010101" stroke-width="0"/>
    <path d="m444.104,21.874c.616-2.299.702-4.256.262-5.872-.442-1.617-1.57-2.425-3.385-2.425-2.018,0-3.685.7-5.002,2.1-1.318,1.402-2.207,2.963-2.668,4.688-.674,2.515-.451,4.509.667,5.981,1.119,1.473,2.676,2.747,4.675,3.825,1.997,1.077,4.159,2.173,6.484,3.286,2.324,1.115,4.388,2.569,6.195,4.363,1.804,1.798,3.076,4.149,3.809,7.058.734,2.91.475,6.7-.776,11.369-2.194,8.188-5.973,14.133-11.336,17.832-5.365,3.701-12.181,5.549-20.453,5.549-3.902,0-7.257-.341-10.066-1.024-2.811-.681-5.015-1.866-6.614-3.555-1.6-1.687-2.572-3.896-2.915-6.628-.345-2.729.022-6.103,1.1-10.127l.722-2.695h18.158l-.491,1.832c-.886,3.305-.936,5.622-.147,6.951.786,1.329,2.088,1.993,3.904,1.993,1.95,0,3.637-.717,5.067-2.156,1.427-1.436,2.42-3.195,2.979-5.279.673-2.515.484-4.508-.567-5.981-1.052-1.472-2.532-2.729-4.437-3.77-1.908-1.04-3.994-2.102-6.261-3.179-2.268-1.077-4.263-2.479-5.986-4.202-1.724-1.725-2.934-3.988-3.628-6.788-.696-2.802-.437-6.465.775-10.992,2.098-7.828,5.646-13.792,10.644-17.887,4.997-4.095,11.465-6.142,19.401-6.142,8.204,0,13.633,1.886,16.289,5.658,2.654,3.77,2.875,9.789.662,18.048h-17.553l.491-1.832Z" fill="#010101" stroke-width="0"/>
  </g>
  <path d="m456.242,63.537c.896-1.338,1.947-2.507,3.152-3.508,1.205-1,2.511-1.788,3.917-2.363,1.407-.574,2.824-.862,4.253-.862s2.692.287,3.79.862c1.098.574,1.982,1.363,2.65,2.363.669,1.001,1.093,2.17,1.273,3.508.18,1.338.064,2.769-.344,4.295-.409,1.526-1.061,2.959-1.957,4.295-.897,1.338-1.947,2.502-3.149,3.493-1.202.992-2.505,1.765-3.905,2.319-1.401.554-2.816.832-4.244.832s-2.695-.278-3.799-.832c-1.103-.554-1.991-1.327-2.663-2.319-.671-.99-1.097-2.155-1.276-3.493-.18-1.336-.065-2.769.344-4.295.409-1.526,1.061-2.957,1.958-4.295Zm1.832,10.091c.837,1.309,2.322,1.962,4.457,1.962s3.969-.653,5.507-1.962c1.537-1.307,2.649-3.24,3.335-5.796.685-2.557.608-4.489-.228-5.796-.837-1.309-2.323-1.962-4.456-1.962s-3.97.653-5.507,1.962c-1.538,1.307-2.65,3.24-3.334,5.796-.685,2.557-.609,4.489.228,5.796Zm7.699-11.8c1.484,0,2.579.258,3.285.773.705.515.87,1.476.493,2.883-.143.536-.335.992-.575,1.368-.24.377-.494.683-.762.922-.268.237-.538.416-.811.534-.273.12-.524.189-.752.208l1.147,4.548h-2.838l-1.088-4.25h-.89l-1.139,4.25h-2.56l3.011-11.235h3.479Zm.419,4.458c.336-.217.565-.554.687-1.011.112-.416.057-.728-.166-.936-.223-.208-.584-.312-1.085-.312h-1.364l-.693,2.586h1.364c.501,0,.919-.109,1.257-.328Z" fill="#010101" stroke-width="0"/>
</svg>